<?xml version="1.0" encoding="UTF-8"?>
<svg version="1.1" xmlns="http://www.w3.org/2000/svg" width="256" height="256">
<path d="M0 0 C7.41628067 -0.23949238 14.38545241 -0.1130361 20.69140625 4.1953125 C25.66647863 9.04850676 28.40839838 14.2717343 30.9765625 20.66015625 C31.35555191 21.57337143 31.73454132 22.48658661 32.12501526 23.42747498 C33.32941784 26.34398406 34.51270022 29.2683329 35.69140625 32.1953125 C36.07286804 33.13594543 36.45432983 34.07657837 36.84735107 35.04571533 C39.63985886 41.93710739 42.38694862 48.84618873 45.12890625 55.7578125 C50.30982638 68.78787591 55.50784226 81.80913217 60.8515625 94.7734375 C61.26264755 95.77177109 61.6737326 96.77010468 62.09727478 97.7986908 C64.04181426 102.5176718 65.99330806 107.23361215 67.95483398 111.94555664 C79.37870678 139.51866896 79.37870678 139.51866896 76.69140625 148.1953125 C73.68702148 154.56460821 69.03398985 156.62715731 62.72265625 158.90625 C60.05305523 159.28615476 58.62651761 158.62946482 56.19140625 157.5078125 C55.0621875 157.00701172 55.0621875 157.00701172 53.91015625 156.49609375 C48.03609084 153.05231949 46.02785727 148.16307515 43.44140625 142.1328125 C43.07789063 141.31748047 42.714375 140.50214844 42.33984375 139.66210938 C39.69140625 133.60355968 39.69140625 133.60355968 39.69140625 130.1953125 C39.03140625 129.8653125 38.37140625 129.5353125 37.69140625 129.1953125 C35.69140625 123.08420139 35.69140625 123.08420139 35.69140625 120.1953125 C30.08140625 120.1953125 24.47140625 120.1953125 18.69140625 120.1953125 C18.69140625 153.5253125 18.69140625 186.8553125 18.69140625 221.1953125 C29.58140625 221.1953125 40.47140625 221.1953125 51.69140625 221.1953125 C53.3134114 222.81731765 52.82131375 224.61554281 52.82421875 226.8515625 C52.82550781 227.79128906 52.82679688 228.73101562 52.828125 229.69921875 C52.82425781 230.68792969 52.82039062 231.67664063 52.81640625 232.6953125 C52.82027344 233.68402344 52.82414063 234.67273438 52.828125 235.69140625 C52.82619141 237.10099609 52.82619141 237.10099609 52.82421875 238.5390625 C52.82252686 239.84133789 52.82252686 239.84133789 52.82080078 241.16992188 C52.69140625 243.1953125 52.69140625 243.1953125 51.69140625 244.1953125 C48.92873196 244.30648914 46.19082669 244.35270965 43.42724609 244.35644531 C42.56052277 244.36141022 41.69379944 244.36637512 40.80081177 244.37149048 C37.91798115 244.38615821 35.03520564 244.39292348 32.15234375 244.3984375 C30.15272011 244.40418735 28.15309649 244.4099451 26.1534729 244.41571045 C21.95175926 244.42623504 17.75006482 244.43206743 13.54833984 244.43554688 C8.17149584 244.44101959 2.79490662 244.46501529 -2.58185768 244.49351883 C-6.7169162 244.51217492 -10.85191391 244.5173525 -14.98701096 244.51888275 C-16.96849325 244.5219056 -18.94997457 244.5299217 -20.93141556 244.54306793 C-23.71049352 244.56018233 -26.48895666 244.55823444 -29.26806641 244.55175781 C-30.0828949 244.5609726 -30.89772339 244.57018738 -31.73724365 244.5796814 C-37.02186609 244.54123236 -40.56451773 243.52675158 -45.30859375 241.1953125 C-46.31535156 240.88722656 -47.32210937 240.57914063 -48.359375 240.26171875 C-51.83026443 239.00668191 -54.47386927 237.24339005 -57.49609375 235.1328125 C-61.66924435 232.20013794 -61.66924435 232.20013794 -66.30859375 230.1953125 C-66.30859375 229.5353125 -66.30859375 228.8753125 -66.30859375 228.1953125 C-67.11296875 227.8240625 -67.11296875 227.8240625 -67.93359375 227.4453125 C-73.16376222 224.69259225 -76.68699436 221.83548672 -80.30859375 217.1953125 C-81.27796875 216.3909375 -82.24734375 215.5865625 -83.24609375 214.7578125 C-88.92953192 210.0022826 -92.95714688 204.01611355 -97.12109375 197.9453125 C-97.62318359 197.22601563 -98.12527344 196.50671875 -98.64257812 195.765625 C-99.11630859 195.07726562 -99.59003906 194.38890625 -100.078125 193.6796875 C-100.72164917 192.74721191 -100.72164917 192.74721191 -101.37817383 191.79589844 C-102.30859375 190.1953125 -102.30859375 190.1953125 -102.30859375 188.1953125 C-102.96859375 187.8653125 -103.62859375 187.5353125 -104.30859375 187.1953125 C-105.25068392 185.41676046 -106.11573328 183.59680285 -106.93359375 181.7578125 C-107.37960938 180.76910156 -107.825625 179.78039062 -108.28515625 178.76171875 C-109.30859375 176.1953125 -109.30859375 176.1953125 -109.30859375 174.1953125 C-109.96859375 173.8653125 -110.62859375 173.5353125 -111.30859375 173.1953125 C-112.22230821 170.8080354 -112.76410027 168.36812641 -113.37890625 165.88671875 C-114.06254093 163.17228694 -114.80493054 160.52379581 -115.61328125 157.84765625 C-122.61440424 133.46469017 -122.23017382 104.45685966 -111.30859375 81.1953125 C-110.73715008 79.8844345 -110.16982321 78.5717581 -109.60546875 77.2578125 C-106.97909962 71.15937646 -104.33095672 65.11142726 -101.30859375 59.1953125 C-100.64859375 59.1953125 -99.98859375 59.1953125 -99.30859375 59.1953125 C-99.08171875 58.3084375 -98.85484375 57.4215625 -98.62109375 56.5078125 C-97.13005947 52.74472598 -95.21476365 50.95244805 -92.30859375 48.1953125 C-91.97859375 47.2053125 -91.64859375 46.2153125 -91.30859375 45.1953125 C-90.64859375 45.1953125 -89.98859375 45.1953125 -89.30859375 45.1953125 C-89.30859375 44.5353125 -89.30859375 43.8753125 -89.30859375 43.1953125 C-87.64192708 41.86197917 -85.97526042 40.52864583 -84.30859375 39.1953125 C-83.39031217 38.13094066 -82.49417825 37.04706199 -81.62109375 35.9453125 C-80.85796875 35.0378125 -80.09484375 34.1303125 -79.30859375 33.1953125 C-78.64859375 33.1953125 -77.98859375 33.1953125 -77.30859375 33.1953125 C-77.30859375 32.5353125 -77.30859375 31.8753125 -77.30859375 31.1953125 C-76.64859375 31.1953125 -75.98859375 31.1953125 -75.30859375 31.1953125 C-75.30859375 30.5353125 -75.30859375 29.8753125 -75.30859375 29.1953125 C-73.97616406 28.24858614 -72.63072255 27.31781691 -71.24609375 26.44921875 C-69.88148595 25.5660754 -68.55000342 24.63067992 -67.24609375 23.66015625 C-47.96474231 9.36199192 -23.83183197 1.40683778 0 0 Z M-58.30859375 47.1953125 C-59.11941406 47.87335937 -59.93023437 48.55140625 -60.765625 49.25 C-71.31821139 58.35991329 -78.9936331 68.85444433 -85.30859375 81.1953125 C-85.86675781 82.28457031 -86.42492187 83.37382813 -87 84.49609375 C-97.75244221 107.42924744 -98.74184061 135.51342492 -90.54492188 159.42285156 C-88.75421489 164.16156898 -86.62604783 168.6940796 -84.30859375 173.1953125 C-83.77363281 174.25105469 -83.23867187 175.30679688 -82.6875 176.39453125 C-71.25633658 197.36537062 -53.35049072 210.67436402 -32.30859375 221.1953125 C-23.39859375 221.1953125 -14.48859375 221.1953125 -5.30859375 221.1953125 C-5.30859375 187.8653125 -5.30859375 154.5353125 -5.30859375 120.1953125 C-11.24859375 120.1953125 -17.18859375 120.1953125 -23.30859375 120.1953125 C-24.30439453 122.87140625 -24.30439453 122.87140625 -25.3203125 125.6015625 C-26.21178719 127.96631643 -27.10373955 130.33089032 -27.99609375 132.6953125 C-28.64868164 134.45488281 -28.64868164 134.45488281 -29.31445312 136.25 C-35.33516506 152.12684037 -35.33516506 152.12684037 -41.18359375 156.1953125 C-46.69811495 157.95995928 -51.7069848 157.28830937 -57.30859375 156.1953125 C-57.30859375 155.5353125 -57.30859375 154.8753125 -57.30859375 154.1953125 C-58.11296875 153.5353125 -58.91734375 152.8753125 -59.74609375 152.1953125 C-62.72135215 148.71208316 -63.39252844 146.88318436 -63.640625 142.390625 C-62.87509733 135.02354693 -59.91050898 128.08153728 -57.30859375 121.1953125 C-56.88964844 120.05578125 -56.47070312 118.91625 -56.0390625 117.7421875 C-53.47777479 110.92350851 -50.67645505 104.20245687 -47.88818359 97.47436523 C-45.78136186 92.38031841 -43.778742 87.25463946 -41.8203125 82.1015625 C-39.7120541 76.60831942 -37.49989511 71.15579426 -35.30859375 65.6953125 C-32.26365055 58.10552821 -29.23907778 50.51246796 -26.3359375 42.8671875 C-24.94970481 39.26192835 -23.48549803 35.68973352 -22.0078125 32.12109375 C-21.19483249 30.22345739 -21.19483249 30.22345739 -21.30859375 28.1953125 C-33.8422696 28.1953125 -49.14443145 39.33091469 -58.30859375 47.1953125 Z M5.69140625 40.1953125 C2.97954909 46.8536308 0.42987742 53.55128812 -1.98046875 60.32421875 C-2.30774963 61.23993149 -2.63503052 62.15564423 -2.972229 63.09910583 C-3.65542409 65.01211135 -4.33768689 66.92545005 -5.01904297 68.83911133 C-6.06733863 71.78236512 -7.1194128 74.72424948 -8.171875 77.66601562 C-8.8374626 79.53117043 -9.50283518 81.39640199 -10.16796875 83.26171875 C-10.64130646 84.5849691 -10.64130646 84.5849691 -11.12420654 85.93495178 C-11.41160706 86.74347092 -11.69900757 87.55199005 -11.99511719 88.38500977 C-12.24952576 89.09875259 -12.50393433 89.81249542 -12.76605225 90.54786682 C-13.36072665 92.06453544 -13.36072665 92.06453544 -13.30859375 93.1953125 C-0.43859375 93.1953125 12.43140625 93.1953125 25.69140625 93.1953125 C24.12390625 88.7815625 22.55640625 84.3678125 20.94140625 79.8203125 C20.45575195 78.44955566 19.97009766 77.07879883 19.46972656 75.66650391 C17.2848712 69.53237582 15.02551864 63.4515488 12.57128906 57.42041016 C11.22443407 54.01440672 10.07153799 50.55310842 8.94140625 47.0703125 C8.72097656 46.4 8.50054687 45.7296875 8.2734375 45.0390625 C7.74323884 43.42541441 7.21688212 41.81050471 6.69140625 40.1953125 C6.36140625 40.1953125 6.03140625 40.1953125 5.69140625 40.1953125 Z " fill="#FF7B00" transform="translate(121.30859375,1.8046875)"/>
<path d="M0 0 C7.41628067 -0.23949238 14.38545241 -0.1130361 20.69140625 4.1953125 C25.66647863 9.04850676 28.40839838 14.2717343 30.9765625 20.66015625 C31.35555191 21.57337143 31.73454132 22.48658661 32.12501526 23.42747498 C33.32941784 26.34398406 34.51270022 29.2683329 35.69140625 32.1953125 C36.07286804 33.13594543 36.45432983 34.07657837 36.84735107 35.04571533 C39.63985886 41.93710739 42.38694862 48.84618873 45.12890625 55.7578125 C50.30982638 68.78787591 55.50784226 81.80913217 60.8515625 94.7734375 C61.26264755 95.77177109 61.6737326 96.77010468 62.09727478 97.7986908 C64.04181426 102.5176718 65.99330806 107.23361215 67.95483398 111.94555664 C79.37870678 139.51866896 79.37870678 139.51866896 76.69140625 148.1953125 C73.68702148 154.56460821 69.03398985 156.62715731 62.72265625 158.90625 C60.05305523 159.28615476 58.62651761 158.62946482 56.19140625 157.5078125 C55.0621875 157.00701172 55.0621875 157.00701172 53.91015625 156.49609375 C48.03609084 153.05231949 46.02785727 148.16307515 43.44140625 142.1328125 C43.07789063 141.31748047 42.714375 140.50214844 42.33984375 139.66210938 C39.69140625 133.60355968 39.69140625 133.60355968 39.69140625 130.1953125 C39.03140625 129.8653125 38.37140625 129.5353125 37.69140625 129.1953125 C35.69140625 123.08420139 35.69140625 123.08420139 35.69140625 120.1953125 C30.08140625 120.1953125 24.47140625 120.1953125 18.69140625 120.1953125 C18.69140625 153.5253125 18.69140625 186.8553125 18.69140625 221.1953125 C29.58140625 221.1953125 40.47140625 221.1953125 51.69140625 221.1953125 C53.3134114 222.81731765 52.82131375 224.61554281 52.82421875 226.8515625 C52.82550781 227.79128906 52.82679688 228.73101562 52.828125 229.69921875 C52.82425781 230.68792969 52.82039062 231.67664063 52.81640625 232.6953125 C52.82027344 233.68402344 52.82414063 234.67273438 52.828125 235.69140625 C52.82619141 237.10099609 52.82619141 237.10099609 52.82421875 238.5390625 C52.82252686 239.84133789 52.82252686 239.84133789 52.82080078 241.16992188 C52.69140625 243.1953125 52.69140625 243.1953125 51.69140625 244.1953125 C48.92873196 244.30648914 46.19082669 244.35270965 43.42724609 244.35644531 C42.56052277 244.36141022 41.69379944 244.36637512 40.80081177 244.37149048 C37.91798115 244.38615821 35.03520564 244.39292348 32.15234375 244.3984375 C30.15272011 244.40418735 28.15309649 244.4099451 26.1534729 244.41571045 C21.95175926 244.42623504 17.75006482 244.43206743 13.54833984 244.43554688 C8.17149584 244.44101959 2.79490662 244.46501529 -2.58185768 244.49351883 C-6.7169162 244.51217492 -10.85191391 244.5173525 -14.98701096 244.51888275 C-16.96849325 244.5219056 -18.94997457 244.5299217 -20.93141556 244.54306793 C-23.71049352 244.56018233 -26.48895666 244.55823444 -29.26806641 244.55175781 C-30.0828949 244.5609726 -30.89772339 244.57018738 -31.73724365 244.5796814 C-37.02186609 244.54123236 -40.56451773 243.52675158 -45.30859375 241.1953125 C-46.31535156 240.88722656 -47.32210937 240.57914063 -48.359375 240.26171875 C-51.83026443 239.00668191 -54.47386927 237.24339005 -57.49609375 235.1328125 C-61.66924435 232.20013794 -61.66924435 232.20013794 -66.30859375 230.1953125 C-66.30859375 229.5353125 -66.30859375 228.8753125 -66.30859375 228.1953125 C-67.11296875 227.8240625 -67.11296875 227.8240625 -67.93359375 227.4453125 C-73.16376222 224.69259225 -76.68699436 221.83548672 -80.30859375 217.1953125 C-81.27796875 216.3909375 -82.24734375 215.5865625 -83.24609375 214.7578125 C-88.92953192 210.0022826 -92.95714688 204.01611355 -97.12109375 197.9453125 C-97.62318359 197.22601563 -98.12527344 196.50671875 -98.64257812 195.765625 C-99.11630859 195.07726562 -99.59003906 194.38890625 -100.078125 193.6796875 C-100.72164917 192.74721191 -100.72164917 192.74721191 -101.37817383 191.79589844 C-102.30859375 190.1953125 -102.30859375 190.1953125 -102.30859375 188.1953125 C-102.96859375 187.8653125 -103.62859375 187.5353125 -104.30859375 187.1953125 C-105.25068392 185.41676046 -106.11573328 183.59680285 -106.93359375 181.7578125 C-107.37960938 180.76910156 -107.825625 179.78039062 -108.28515625 178.76171875 C-109.30859375 176.1953125 -109.30859375 176.1953125 -109.30859375 174.1953125 C-109.96859375 173.8653125 -110.62859375 173.5353125 -111.30859375 173.1953125 C-112.22230821 170.8080354 -112.76410027 168.36812641 -113.37890625 165.88671875 C-114.06254093 163.17228694 -114.80493054 160.52379581 -115.61328125 157.84765625 C-122.61440424 133.46469017 -122.23017382 104.45685966 -111.30859375 81.1953125 C-110.73715008 79.8844345 -110.16982321 78.5717581 -109.60546875 77.2578125 C-106.97909962 71.15937646 -104.33095672 65.11142726 -101.30859375 59.1953125 C-100.64859375 59.1953125 -99.98859375 59.1953125 -99.30859375 59.1953125 C-99.08171875 58.3084375 -98.85484375 57.4215625 -98.62109375 56.5078125 C-97.13005947 52.74472598 -95.21476365 50.95244805 -92.30859375 48.1953125 C-91.97859375 47.2053125 -91.64859375 46.2153125 -91.30859375 45.1953125 C-90.64859375 45.1953125 -89.98859375 45.1953125 -89.30859375 45.1953125 C-89.30859375 44.5353125 -89.30859375 43.8753125 -89.30859375 43.1953125 C-87.64192708 41.86197917 -85.97526042 40.52864583 -84.30859375 39.1953125 C-83.39031217 38.13094066 -82.49417825 37.04706199 -81.62109375 35.9453125 C-80.85796875 35.0378125 -80.09484375 34.1303125 -79.30859375 33.1953125 C-78.64859375 33.1953125 -77.98859375 33.1953125 -77.30859375 33.1953125 C-77.30859375 32.5353125 -77.30859375 31.8753125 -77.30859375 31.1953125 C-76.64859375 31.1953125 -75.98859375 31.1953125 -75.30859375 31.1953125 C-75.30859375 30.5353125 -75.30859375 29.8753125 -75.30859375 29.1953125 C-73.97616406 28.24858614 -72.63072255 27.31781691 -71.24609375 26.44921875 C-69.88148595 25.5660754 -68.55000342 24.63067992 -67.24609375 23.66015625 C-47.96474231 9.36199192 -23.83183197 1.40683778 0 0 Z M-87.62695312 46.32714844 C-109.59835085 70.7355595 -117.79900255 103.41184597 -116.47705078 135.50927734 C-116.05661205 142.21314252 -114.93195482 148.68429247 -113.30859375 155.1953125 C-113.14230469 155.8661084 -112.97601563 156.5369043 -112.8046875 157.22802734 C-110.7769636 165.07794738 -107.99494437 172.40926493 -104.30859375 179.6328125 C-103.98866455 180.27814941 -103.66873535 180.92348633 -103.33911133 181.58837891 C-101.89145443 184.26608778 -100.92696518 185.94753673 -98.046875 187.1015625 C-94.52656495 187.22208667 -91.01784309 187.30162374 -87.49609375 187.2578125 C-86.80322266 187.25330078 -86.11035156 187.24878906 -85.39648438 187.24414062 C-83.70048307 187.23244406 -82.00452672 187.21451174 -80.30859375 187.1953125 C-81.75209332 183.31990726 -83.57829079 179.84970328 -85.62109375 176.2578125 C-98.61328515 152.19119601 -101.55783995 122.50445142 -93.72265625 96.23046875 C-85.37326691 69.79073584 -67.77208114 47.51800394 -43.30859375 34.1953125 C-34.95613898 29.98180637 -26.36367738 26.56797672 -17.30859375 24.1953125 C-22.4669953 38.16778953 -27.91843018 52.02308975 -33.37109375 65.8828125 C-35.13344823 70.36563577 -36.89506334 74.84874905 -38.65625 79.33203125 C-39.07302505 80.39261749 -39.48980011 81.45320374 -39.91920471 82.54592896 C-42.42730538 88.93360699 -44.90918267 95.33022549 -47.36157227 101.73950195 C-48.61586828 104.99213501 -49.92704286 108.21841699 -51.24609375 111.4453125 C-53.83767573 117.83418117 -56.16126889 124.30220792 -58.39233398 130.82519531 C-60.20797373 136.09469248 -60.20797373 136.09469248 -61.30859375 137.1953125 C-61.82800609 143.32437815 -61.31985076 146.26719674 -57.30859375 151.1953125 C-54.3427816 154.6356546 -52.007206 155.12770486 -47.43359375 155.5703125 C-44.03169439 155.52046782 -43.41117915 155.27458304 -40.55859375 153.0703125 C-39.81609375 152.1215625 -39.07359375 151.1728125 -38.30859375 150.1953125 C-37.62796875 149.3496875 -36.94734375 148.5040625 -36.24609375 147.6328125 C-33.98388229 143.61921152 -32.6947485 139.61453931 -31.3203125 135.23046875 C-30.17287748 131.78816369 -28.7410269 128.57993763 -27.140625 125.328125 C-26.00287455 122.62721039 -26.00287455 122.62721039 -25.30859375 117.1953125 C-17.71859375 117.1953125 -10.12859375 117.1953125 -2.30859375 117.1953125 C-2.30859375 139.9653125 -2.30859375 162.7353125 -2.30859375 186.1953125 C1.46958816 186.95094888 4.14291091 187.28574506 7.87890625 187.1953125 C12.47109151 187.08515513 12.47109151 187.08515513 14.69140625 188.1953125 C14.69140625 164.7653125 14.69140625 141.3353125 14.69140625 117.1953125 C22.28140625 117.1953125 29.87140625 117.1953125 37.69140625 117.1953125 C38.68140625 120.8253125 39.67140625 124.4553125 40.69140625 128.1953125 C45.55080398 142.59323624 45.55080398 142.59323624 54.69140625 154.1953125 C59.86539933 155.25824763 64.45583699 154.79103339 69.19140625 152.5078125 C72.88678937 149.08958311 74.49757975 146.92359883 75.06640625 141.8515625 C74.94972551 135.47589654 72.17703451 129.76901039 69.81640625 123.9453125 C69.27983519 122.59297793 68.74422134 121.24026325 68.20947266 119.88720703 C66.39401829 115.31348844 64.5457859 110.75336576 62.69140625 106.1953125 C62.35761963 105.37454224 62.02383301 104.55377197 61.67993164 103.70812988 C58.39462826 95.63612473 55.0973676 87.56906381 51.77685547 79.51147461 C47.69530149 69.59870722 43.67262688 59.66670273 39.74609375 49.69140625 C38.9331064 47.63232385 38.12011813 45.57324181 37.30712891 43.51416016 C36.13426717 40.54203619 34.96508242 37.56874233 33.80780029 34.59051514 C32.74171704 31.8470096 31.66297383 29.108772 30.58203125 26.37109375 C30.2764328 25.57295761 29.97083435 24.77482147 29.65597534 23.95249939 C26.44406857 15.88402578 22.54594807 8.38440147 14.69140625 4.1953125 C-20.99640288 -7.70062388 -64.9138999 22.15068763 -87.62695312 46.32714844 Z M-58.30859375 47.1953125 C-59.11941406 47.87335937 -59.93023437 48.55140625 -60.765625 49.25 C-71.31821139 58.35991329 -78.9936331 68.85444433 -85.30859375 81.1953125 C-85.86675781 82.28457031 -86.42492187 83.37382813 -87 84.49609375 C-97.75244221 107.42924744 -98.74184061 135.51342492 -90.54492188 159.42285156 C-88.75421489 164.16156898 -86.62604783 168.6940796 -84.30859375 173.1953125 C-83.77363281 174.25105469 -83.23867187 175.30679688 -82.6875 176.39453125 C-71.25633658 197.36537062 -53.35049072 210.67436402 -32.30859375 221.1953125 C-23.39859375 221.1953125 -14.48859375 221.1953125 -5.30859375 221.1953125 C-5.30859375 187.8653125 -5.30859375 154.5353125 -5.30859375 120.1953125 C-11.24859375 120.1953125 -17.18859375 120.1953125 -23.30859375 120.1953125 C-24.30439453 122.87140625 -24.30439453 122.87140625 -25.3203125 125.6015625 C-26.21178719 127.96631643 -27.10373955 130.33089032 -27.99609375 132.6953125 C-28.64868164 134.45488281 -28.64868164 134.45488281 -29.31445312 136.25 C-35.33516506 152.12684037 -35.33516506 152.12684037 -41.18359375 156.1953125 C-46.69811495 157.95995928 -51.7069848 157.28830937 -57.30859375 156.1953125 C-57.30859375 155.5353125 -57.30859375 154.8753125 -57.30859375 154.1953125 C-58.11296875 153.5353125 -58.91734375 152.8753125 -59.74609375 152.1953125 C-62.72135215 148.71208316 -63.39252844 146.88318436 -63.640625 142.390625 C-62.87509733 135.02354693 -59.91050898 128.08153728 -57.30859375 121.1953125 C-56.88964844 120.05578125 -56.47070312 118.91625 -56.0390625 117.7421875 C-53.47777479 110.92350851 -50.67645505 104.20245687 -47.88818359 97.47436523 C-45.78136186 92.38031841 -43.778742 87.25463946 -41.8203125 82.1015625 C-39.7120541 76.60831942 -37.49989511 71.15579426 -35.30859375 65.6953125 C-32.26365055 58.10552821 -29.23907778 50.51246796 -26.3359375 42.8671875 C-24.94970481 39.26192835 -23.48549803 35.68973352 -22.0078125 32.12109375 C-21.19483249 30.22345739 -21.19483249 30.22345739 -21.30859375 28.1953125 C-33.8422696 28.1953125 -49.14443145 39.33091469 -58.30859375 47.1953125 Z " fill="#FF0900" transform="translate(121.30859375,1.8046875)"/>
<path d="M0 0 C-0.6190549 4.95533652 -2.12990226 9.31470237 -3.9921875 13.9140625 C-4.29408997 14.67359726 -4.59599243 15.43313202 -4.90704346 16.21568298 C-5.89094293 18.68765588 -6.88298319 21.15627489 -7.875 23.625 C-8.5577676 25.33690361 -9.23989139 27.04906412 -9.92138672 28.76147461 C-11.29350862 32.2079908 -12.66821309 35.65345815 -14.04492188 39.09814453 C-16.76465093 45.90925598 -19.44678232 52.73498428 -22.125 59.5625 C-22.54894043 60.64031738 -22.97288086 61.71813477 -23.40966797 62.82861328 C-29.172889 77.4380384 -29.172889 77.4380384 -34.5625 92.1875 C-39.59334255 106.37827285 -39.59334255 106.37827285 -42.08984375 111.03125 C-43.59239073 114.28139454 -43.54124071 117.53205026 -43 121 C-40.77863437 125.36045847 -38.56432971 128.13277421 -34 130 C-31.08255287 130.47168307 -29.02611109 130.33623457 -26 130 C-23.62580082 128.45952223 -23.62580082 128.45952223 -22 126 C-21.34 125.175 -20.68 124.35 -20 123.5 C-17.51576459 119.66690239 -16.36954026 115.3615905 -15.0078125 111.03515625 C-13.87034576 107.60952968 -12.47543063 104.39037034 -10.9296875 101.1328125 C-9.77829499 98.49138263 -8.91120011 95.73360034 -8 93 C-0.41 93 7.18 93 15 93 C15.33 115.77 15.66 138.54 16 162 C20.62 162 25.24 162 30 162 C30.33 162.33 30.66 162.66 31 163 C31.33 139.9 31.66 116.8 32 93 C32.33 93 32.66 93 33 93 C33 128.31 33 163.62 33 200 C43.89 200 54.78 200 66 200 C66 200.99 66 201.98 66 203 C51.63105801 203.07013807 37.26214264 203.12281208 22.8930645 203.15543652 C16.22095953 203.17109437 9.54899188 203.19233514 2.87695312 203.22631836 C-3.56155401 203.258907 -9.99995053 203.27685212 -16.43853378 203.28463173 C-18.89533098 203.29017608 -21.3521221 203.30100274 -23.80887222 203.31719017 C-27.24917958 203.33895732 -30.68902943 203.34196715 -34.12939453 203.34057617 C-35.14575485 203.351362 -36.16211517 203.36214783 -37.20927429 203.3732605 C-44.0787335 203.3431936 -49.04761119 202.17715649 -54.18359375 197.328125 C-54.7149292 196.8326416 -55.24626465 196.3371582 -55.79370117 195.82666016 C-56.60738159 195.04621338 -56.60738159 195.04621338 -57.4375 194.25 C-58.29661987 193.43668213 -58.29661987 193.43668213 -59.1730957 192.60693359 C-60.29611937 191.54089919 -61.41628383 190.47184252 -62.53320312 189.39941406 C-63.68770075 188.29795262 -64.86354035 187.21885853 -66.046875 186.1484375 C-70.01708079 182.46181784 -73.15018036 178.25186229 -76.3125 173.875 C-76.96255005 172.9770874 -76.96255005 172.9770874 -77.62573242 172.06103516 C-79.98214854 168.71677445 -81.45706612 165.85733471 -83 162 C-76.73 162 -70.46 162 -64 162 C-65.0725 159.855 -66.145 157.71 -67.25 155.5 C-67.59933594 154.79915283 -67.94867188 154.09830566 -68.30859375 153.3762207 C-69.60484933 150.77614805 -70.90550209 148.18102257 -72.25 145.60546875 C-83.57053643 123.89303364 -84.3265445 95.21501257 -77.4140625 72.03515625 C-72.21147031 55.56028099 -63.66197705 41.64724393 -52 29 C-51.41863281 28.33742188 -50.83726563 27.67484375 -50.23828125 26.9921875 C-39.18973267 15.02524572 -16.80382338 0 0 0 Z M-41 23 C-41.81082031 23.67804687 -42.62164062 24.35609375 -43.45703125 25.0546875 C-54.00961764 34.16460079 -61.68503935 44.65913183 -68 57 C-68.55816406 58.08925781 -69.11632812 59.17851563 -69.69140625 60.30078125 C-80.44384846 83.23393494 -81.43324686 111.31811242 -73.23632812 135.22753906 C-71.44562114 139.96625648 -69.31745408 144.4987671 -67 149 C-66.46503906 150.05574219 -65.93007812 151.11148438 -65.37890625 152.19921875 C-53.94774283 173.17005812 -36.04189697 186.47905152 -15 197 C-6.09 197 2.82 197 12 197 C12 163.67 12 130.34 12 96 C6.06 96 0.12 96 -6 96 C-6.99580078 98.67609375 -6.99580078 98.67609375 -8.01171875 101.40625 C-8.90319344 103.77100393 -9.7951458 106.13557782 -10.6875 108.5 C-11.34008789 110.25957031 -11.34008789 110.25957031 -12.00585938 112.0546875 C-18.02657131 127.93152787 -18.02657131 127.93152787 -23.875 132 C-29.3895212 133.76464678 -34.39839105 133.09299687 -40 132 C-40 131.34 -40 130.68 -40 130 C-40.804375 129.34 -41.60875 128.68 -42.4375 128 C-45.4127584 124.51677066 -46.08393469 122.68787186 -46.33203125 118.1953125 C-45.56650358 110.82823443 -42.60191523 103.88622478 -40 97 C-39.58105469 95.86046875 -39.16210938 94.7209375 -38.73046875 93.546875 C-36.16918104 86.72819601 -33.3678613 80.00714437 -30.57958984 73.27905273 C-28.47276811 68.18500591 -26.47014825 63.05932696 -24.51171875 57.90625 C-22.40346035 52.41300692 -20.19130136 46.96048176 -18 41.5 C-14.9550568 33.91021571 -11.93048403 26.31715546 -9.02734375 18.671875 C-7.64111106 15.06661585 -6.17690428 11.49442102 -4.69921875 7.92578125 C-3.88623874 6.02814489 -3.88623874 6.02814489 -4 4 C-16.53367585 4 -31.8358377 15.13560219 -41 23 Z " fill="#FF2200" transform="translate(104,26)"/>
<path d="M0 0 C-0.6190549 4.95533652 -2.12990226 9.31470237 -3.9921875 13.9140625 C-4.29408997 14.67359726 -4.59599243 15.43313202 -4.90704346 16.21568298 C-5.89094293 18.68765588 -6.88298319 21.15627489 -7.875 23.625 C-8.5577676 25.33690361 -9.23989139 27.04906412 -9.92138672 28.76147461 C-11.29350862 32.2079908 -12.66821309 35.65345815 -14.04492188 39.09814453 C-16.76465093 45.90925598 -19.44678232 52.73498428 -22.125 59.5625 C-22.54894043 60.64031738 -22.97288086 61.71813477 -23.40966797 62.82861328 C-29.172889 77.4380384 -29.172889 77.4380384 -34.5625 92.1875 C-39.59334255 106.37827285 -39.59334255 106.37827285 -42.08984375 111.03125 C-43.59239073 114.28139454 -43.54124071 117.53205026 -43 121 C-40.77863437 125.36045847 -38.56432971 128.13277421 -34 130 C-31.08255287 130.47168307 -29.02611109 130.33623457 -26 130 C-23.62580082 128.45952223 -23.62580082 128.45952223 -22 126 C-21.34 125.175 -20.68 124.35 -20 123.5 C-17.51576459 119.66690239 -16.36954026 115.3615905 -15.0078125 111.03515625 C-13.87034576 107.60952968 -12.47543063 104.39037034 -10.9296875 101.1328125 C-9.77829499 98.49138263 -8.91120011 95.73360034 -8 93 C-0.74 93 6.52 93 14 93 C14.1529814 106.80336211 14.30174052 120.6067517 14.4429636 134.41023922 C14.50870261 140.81901661 14.57632833 147.22776275 14.64819336 153.63647461 C14.71741515 159.81555304 14.78177576 165.99466436 14.84269524 172.17383003 C14.86686216 174.53707293 14.89281234 176.90029825 14.92053413 179.26350212 C14.9589176 182.56097537 14.9910896 185.85845288 15.02172852 189.15600586 C15.03467453 190.14358887 15.04762054 191.13117188 15.06095886 192.14868164 C15.0715181 193.48859413 15.0715181 193.48859413 15.08229065 194.85557556 C15.09058679 195.63633422 15.09888292 196.41709288 15.10743046 197.22151089 C15 199 15 199 14 200 C9.79799588 200.24284787 5.59008323 200.22855021 1.38183594 200.24023438 C-0.72762115 200.24989749 -2.83608614 200.2808863 -4.9453125 200.3125 C-6.29166088 200.31903431 -7.63801624 200.3242831 -8.984375 200.328125 C-10.20866211 200.3374707 -11.43294922 200.34681641 -12.69433594 200.35644531 C-16.29519197 199.96816985 -18.0539266 199.03149133 -21 197 C-22.12792969 196.52820313 -23.25585938 196.05640625 -24.41796875 195.5703125 C-38.56031609 189.37050483 -50.15383489 177.57291795 -60 166 C-60.6290625 165.27039063 -61.258125 164.54078125 -61.90625 163.7890625 C-79.30477696 142.65137843 -83.13859854 114.07408494 -80.7890625 87.62548828 C-78.11012157 65.25531679 -67.06446099 45.3371881 -52 29 C-51.41863281 28.33742188 -50.83726563 27.67484375 -50.23828125 26.9921875 C-39.18973267 15.02524572 -16.80382338 0 0 0 Z M-41 23 C-41.81082031 23.67804687 -42.62164062 24.35609375 -43.45703125 25.0546875 C-54.00961764 34.16460079 -61.68503935 44.65913183 -68 57 C-68.55816406 58.08925781 -69.11632812 59.17851563 -69.69140625 60.30078125 C-80.44384846 83.23393494 -81.43324686 111.31811242 -73.23632812 135.22753906 C-71.44562114 139.96625648 -69.31745408 144.4987671 -67 149 C-66.46503906 150.05574219 -65.93007812 151.11148438 -65.37890625 152.19921875 C-53.94774283 173.17005812 -36.04189697 186.47905152 -15 197 C-6.09 197 2.82 197 12 197 C12 163.67 12 130.34 12 96 C6.06 96 0.12 96 -6 96 C-6.99580078 98.67609375 -6.99580078 98.67609375 -8.01171875 101.40625 C-8.90319344 103.77100393 -9.7951458 106.13557782 -10.6875 108.5 C-11.34008789 110.25957031 -11.34008789 110.25957031 -12.00585938 112.0546875 C-18.02657131 127.93152787 -18.02657131 127.93152787 -23.875 132 C-29.3895212 133.76464678 -34.39839105 133.09299687 -40 132 C-40 131.34 -40 130.68 -40 130 C-40.804375 129.34 -41.60875 128.68 -42.4375 128 C-45.4127584 124.51677066 -46.08393469 122.68787186 -46.33203125 118.1953125 C-45.56650358 110.82823443 -42.60191523 103.88622478 -40 97 C-39.58105469 95.86046875 -39.16210938 94.7209375 -38.73046875 93.546875 C-36.16918104 86.72819601 -33.3678613 80.00714437 -30.57958984 73.27905273 C-28.47276811 68.18500591 -26.47014825 63.05932696 -24.51171875 57.90625 C-22.40346035 52.41300692 -20.19130136 46.96048176 -18 41.5 C-14.9550568 33.91021571 -11.93048403 26.31715546 -9.02734375 18.671875 C-7.64111106 15.06661585 -6.17690428 11.49442102 -4.69921875 7.92578125 C-3.88623874 6.02814489 -3.88623874 6.02814489 -4 4 C-16.53367585 4 -31.8358377 15.13560219 -41 23 Z " fill="#FF0500" transform="translate(104,26)"/>
<path d="M0 0 C17.52276199 -2.06193203 17.52276199 -2.06193203 22.96142578 1.16308594 C26.70322393 4.55984809 29.27835301 8.77947495 32 13 C33.94925604 15.24663789 33.94925604 15.24663789 35.875 17.0625 C36.40996094 17.58070313 36.94492187 18.09890625 37.49609375 18.6328125 C39.58307537 20.53006852 41.75239247 22.29726702 44 24 C43.67 24.66 43.34 25.32 43 26 C42.02675781 25.82210937 41.05351563 25.64421875 40.05078125 25.4609375 C37.19125558 25.04555528 34.60640735 25.03097376 31.73046875 25.2890625 C19.94030428 26.26107606 19.94030428 26.26107606 14.88671875 22.9765625 C12.26084575 20.12608138 10.12580794 17.23951246 8 14 C7.21195235 12.88675223 6.42026275 11.77607383 5.625 10.66796875 C0 2.59179688 0 2.59179688 0 0 Z " fill="#FF3C00" transform="translate(21,188)"/>
<path d="M0 0 C0.99 0.33 1.98 0.66 3 1 C4.05306674 3.25864395 4.90336112 5.40649424 5.70703125 7.75390625 C5.95490891 8.44701401 6.20278656 9.14012177 6.45817566 9.85423279 C7.25396722 12.08659064 8.03361312 14.32419461 8.8125 16.5625 C9.32507076 18.01275944 9.83873185 19.462634 10.35351562 20.91210938 C11.12580529 23.08690448 11.89735677 25.26192108 12.66467285 27.43847656 C15.33492331 35.00003876 18.16411538 42.4993852 21 50 C25 60.71549296 25 60.71549296 25 63 C9.49 63 -6.02 63 -22 63 C-20.2456831 54.22841551 -16.78602401 45.95217496 -13.5012207 37.65185547 C-9.82176674 28.35326326 -6.57866849 18.95651111 -3.48046875 9.44921875 C-2.43212806 6.24717118 -1.3127085 3.10567621 0 0 Z M1 7 C-1.71185716 13.6583183 -4.26152883 20.35597562 -6.671875 27.12890625 C-6.99915588 28.04461899 -7.32643677 28.96033173 -7.66363525 29.90379333 C-8.34683034 31.81679885 -9.02909314 33.73013755 -9.71044922 35.64379883 C-10.75874488 38.58705262 -11.81081905 41.52893698 -12.86328125 44.47070312 C-13.52886885 46.33585793 -14.19424143 48.20108949 -14.859375 50.06640625 C-15.33271271 51.3896566 -15.33271271 51.3896566 -15.81561279 52.73963928 C-16.10301331 53.54815842 -16.39041382 54.35667755 -16.68652344 55.18969727 C-16.94093201 55.90344009 -17.19534058 56.61718292 -17.4574585 57.35255432 C-18.0521329 58.86922294 -18.0521329 58.86922294 -18 60 C-5.13 60 7.74 60 21 60 C19.4325 55.58625 17.865 51.1725 16.25 46.625 C15.7643457 45.25424316 15.27869141 43.88348633 14.77832031 42.47119141 C12.59346495 36.33706332 10.33411239 30.2562363 7.87988281 24.22509766 C6.53302782 20.81909422 5.38013174 17.35779592 4.25 13.875 C4.02957031 13.2046875 3.80914062 12.534375 3.58203125 11.84375 C3.05183259 10.23010191 2.52547587 8.61519221 2 7 C1.67 7 1.34 7 1 7 Z " fill="#FF0700" transform="translate(126,35)"/>
<path d="M0 0 C0.33 0 0.66 0 1 0 C1.02320262 10.30980483 1.04095544 20.6196034 1.05181217 30.92942905 C1.05702368 35.71704088 1.06408982 40.5046348 1.07543945 45.29223633 C1.08632995 49.91525892 1.09228989 54.53826432 1.09487724 59.16129875 C1.09672039 60.92227384 1.10031958 62.68324803 1.10573006 64.44421577 C1.1130223 66.91668839 1.1139875 69.38909057 1.11352539 71.86157227 C1.11712067 72.58446442 1.12071594 73.30735657 1.12442017 74.05215454 C1.1155049 78.48010302 0.71761134 82.644948 0 87 C-3.64138242 87.83725216 -7.01594496 88.13509204 -10.75 88.125 C-12.19632812 88.12886719 -12.19632812 88.12886719 -13.671875 88.1328125 C-16 88 -16 88 -17 87 C-17.08631874 85.65732587 -17.10706473 84.31025678 -17.09765625 82.96484375 C-17.09443359 82.15595703 -17.09121094 81.34707031 -17.08789062 80.51367188 C-17.07951172 79.66353516 -17.07113281 78.81339844 -17.0625 77.9375 C-17.05798828 77.08349609 -17.05347656 76.22949219 -17.04882812 75.34960938 C-17.03700373 73.23304337 -17.01906769 71.11651315 -17 69 C-14.52076199 68.97314905 -12.0418116 68.95323453 -9.5625 68.9375 C-8.85544922 68.92912109 -8.14839844 68.92074219 -7.41992188 68.91210938 C-5.61306441 68.90346412 -3.80612397 68.94779989 -2 69 C-1.67 69.33 -1.34 69.66 -1 70 C-0.67 46.9 -0.34 23.8 0 0 Z " fill="#FF4400" transform="translate(136,119)"/>
</svg>
