<?xml version="1.0" encoding="UTF-8"?>
<svg version="1.1" xmlns="http://www.w3.org/2000/svg" width="64" height="64">
<path d="M0 0 C16.5 0 33 0 50 0 C50 14.52 50 29.04 50 44 C33.5 44 17 44 0 44 C0 29.48 0 14.96 0 0 Z " fill="#240E00" transform="translate(9,8)"/>
<path d="M0 0 C7.26 0 14.52 0 22 0 C22 3.96 22 7.92 22 12 C18.7 12 15.4 12 12 12 C12 19.59 12 27.18 12 35 C15.3 35 18.6 35 22 35 C22 37.97 22 40.94 22 44 C14.74 44 7.48 44 0 44 C0 29.48 0 14.96 0 0 Z " fill="#02FE00" transform="translate(9,8)"/>
<path d="M0 0 C7.59 0 15.18 0 23 0 C23 6.93 23 13.86 23 21 C19.35411831 21.02682987 15.70843154 21.04675569 12.0625 21.0625 C10.50112305 21.07506836 10.50112305 21.07506836 8.90820312 21.08789062 C7.91884766 21.09111328 6.92949219 21.09433594 5.91015625 21.09765625 C4.53549194 21.10551147 4.53549194 21.10551147 3.13305664 21.11352539 C1 21 1 21 0 20 C-0.08669432 18.5112814 -0.10703494 17.018555 -0.09765625 15.52734375 C-0.09515869 14.71773193 -0.09266113 13.90812012 -0.09008789 13.07397461 C-0.08098389 12.03893799 -0.07187988 11.00390137 -0.0625 9.9375 C-0.0315625 5.0184375 -0.0315625 5.0184375 0 0 Z " fill="#1700FE" transform="translate(36,8)"/>
<path d="M0 0 C7.26 0 14.52 0 22 0 C22 3.96 22 7.92 22 12 C18.7 12 15.4 12 12 12 C12 14.64 12 17.28 12 20 C8.04 20 4.08 20 0 20 C0 13.4 0 6.8 0 0 Z " fill="#FEFE00" transform="translate(9,8)"/>
<path d="M0 0 C3.63 0 7.26 0 11 0 C11 6.6 11 13.2 11 20 C3.74 20 -3.52 20 -11 20 C-11 17.03 -11 14.06 -11 11 C-7.37 11 -3.74 11 0 11 C0 7.37 0 3.74 0 0 Z " fill="#FD0000" transform="translate(48,32)"/>
<path d="M0 0 C13.365 0.495 13.365 0.495 27 1 C27 1.99 27 2.98 27 4 C23.37 4 19.74 4 16 4 C16 7.63 16 11.26 16 15 C12.37 15 8.74 15 5 15 C5 17.97 5 20.94 5 24 C3.35 24 1.7 24 0 24 C0 16.08 0 8.16 0 0 Z " fill="#020000" transform="translate(32,28)"/>
<path d="M0 0 C3.63 0 7.26 0 11 0 C11 7.92 11 15.84 11 24 C10.67 24 10.34 24 10 24 C10 21.03 10 18.06 10 15 C6.7 15 3.4 15 0 15 C0 10.05 0 5.1 0 0 Z " fill="#012900" transform="translate(21,28)"/>
<path d="M0 0 C3.96 0 7.92 0 12 0 C12 3.63 12 7.26 12 11 C8.37 11 4.74 11 1 11 C1 13.97 1 16.94 1 20 C0.67 20 0.34 20 0 20 C0 13.4 0 6.8 0 0 Z " fill="#3C0000" transform="translate(36,32)"/>
<path d="M0 0 C0.33 0 0.66 0 1 0 C1 3.96 1 7.92 1 12 C4.63 12 8.26 12 12 12 C12 14.64 12 17.28 12 20 C15.63 20 19.26 20 23 20 C23 20.33 23 20.66 23 21 C19.35418313 21.02887512 15.70839537 21.04675585 12.0625 21.0625 C10.50112305 21.07506836 10.50112305 21.07506836 8.90820312 21.08789062 C7.91884766 21.09111328 6.92949219 21.09433594 5.91015625 21.09765625 C4.53549194 21.10551147 4.53549194 21.10551147 3.13305664 21.11352539 C1 21 1 21 0 20 C-0.08669432 18.5112814 -0.10703494 17.018555 -0.09765625 15.52734375 C-0.09443359 14.62822266 -0.09121094 13.72910156 -0.08789062 12.80273438 C-0.07951172 11.85720703 -0.07113281 10.91167969 -0.0625 9.9375 C-0.05798828 8.98810547 -0.05347656 8.03871094 -0.04882812 7.06054688 C-0.0370011 4.70696935 -0.02052025 2.35351523 0 0 Z " fill="#180087" transform="translate(36,8)"/>
<path d="M0 0 C3.3 0 6.6 0 10 0 C10 2.64 10 5.28 10 8 C6.7 8 3.4 8 0 8 C0 5.36 0 2.72 0 0 Z " fill="#3B2A00" transform="translate(21,20)"/>
<path d="M0 0 C7.26 0 14.52 0 22 0 C22 0.99 22 1.98 22 3 C14.74 3 7.48 3 0 3 C0 2.01 0 1.02 0 0 Z " fill="#1F0000" transform="translate(37,29)"/>
</svg>
